HIERARCHY
ROOT newVegas:Hips
{
	OFFSET 0.000000 96.479958 0.000000
	CHANNELS 6 Xposition Yposition Zposition Xrotation Yrotation Zrotation
	JOINT newVegas:Pelvis
	{
		OFFSET 0.000000 0.000000 0.000000
		CHANNELS 3 Xrotation Yrotation Zrotation
		JOINT newVegas:LeftUpLeg
		{
			OFFSET 18.735201 -5.666702 -4.541200
			CHANNELS 3 Xrotation Yrotation Zrotation
			JOINT newVegas:LeftLeg
			{
				OFFSET -0.021200 -31.938179 0.493100
				CHANNELS 3 Xrotation Yrotation Zrotation
				JOINT newVegas:LeftFoot
				{
					OFFSET 0.021200 -31.938179 -4.336299
					CHANNELS 3 Xrotation Yrotation Zrotation
					JOINT newVegas:LeftToeBase
					{
						OFFSET 0.943001 -26.722000 15.023500
						CHANNELS 3 Xrotation Yrotation Zrotation
						End Site
						{
							OFFSET 0.000000 30.670183 0.000000
						}
					}
				}
				JOINT newVegas:Left_PantLeg
				{
					OFFSET 0.663870 -9.044666 -1.108900
					CHANNELS 3 Xrotation Yrotation Zrotation
					End Site
					{
						OFFSET 1.415995 20.635357 0.000000
					}
				}
			}
		}
		JOINT newVegas:RightUpLeg
		{
			OFFSET -18.735201 -5.666702 -4.541200
			CHANNELS 3 Xrotation Yrotation Zrotation
			JOINT newVegas:RightLeg
			{
				OFFSET 0.018946 -31.938133 0.493100
				CHANNELS 3 Xrotation Yrotation Zrotation
				JOINT newVegas:RightFoot
				{
					OFFSET -0.018946 -31.938126 -4.336299
					CHANNELS 3 Xrotation Yrotation Zrotation
					JOINT newVegas:RightToeBase
					{
						OFFSET -0.943001 -26.722004 15.023500
						CHANNELS 3 Xrotation Yrotation Zrotation
						End Site
						{
							OFFSET 0.000000 30.670187 0.000000
						}
					}
				}
				JOINT newVegas:Right_PantLeg
				{
					OFFSET -0.661674 -9.044716 -1.108900
					CHANNELS 3 Xrotation Yrotation Zrotation
					End Site
					{
						OFFSET -1.415958 20.635269 0.000000
					}
				}
			}
		}
	}
	JOINT newVegas:Spine
	{
		OFFSET 0.000000 10.199997 -0.299500
		CHANNELS 3 Xrotation Yrotation Zrotation
		JOINT newVegas:Spine1
		{
			OFFSET 0.000000 11.900002 -1.516600
			CHANNELS 3 Xrotation Yrotation Zrotation
			JOINT newVegas:Spine2
			{
				OFFSET 0.000000 13.600006 -2.842500
				CHANNELS 3 Xrotation Yrotation Zrotation
				JOINT newVegas:Neck
				{
					OFFSET 0.000000 9.624100 -2.890100
					CHANNELS 3 Xrotation Yrotation Zrotation
					JOINT newVegas:Head
					{
						OFFSET 0.000000 14.068802 -1.351900
						CHANNELS 3 Xrotation Yrotation Zrotation
						JOINT newVegas:Hair_Back
						{
							OFFSET 0.000000 3.231903 -17.524799
							CHANNELS 3 Xrotation Yrotation Zrotation
							End Site
							{
								OFFSET 0.000000 19.849884 0.000000
							}
						}
						JOINT newVegas:Hair_Front
						{
							OFFSET 0.000000 31.260406 4.573800
							CHANNELS 3 Xrotation Yrotation Zrotation
							JOINT newVegas:Hair_Front1
							{
								OFFSET 0.000000 2.284103 11.993300
								CHANNELS 3 Xrotation Yrotation Zrotation
								JOINT newVegas:Hair_Front2
								{
									OFFSET 0.000000 2.284103 11.993300
									CHANNELS 3 Xrotation Yrotation Zrotation
									End Site
									{
										OFFSET 0.000000 12.208862 0.000000
									}
								}
							}
						}
						JOINT newVegas:Jowel
						{
							OFFSET 0.000000 -7.458206 6.864100
							CHANNELS 3 Xrotation Yrotation Zrotation
							End Site
							{
								OFFSET 0.000000 19.849884 0.000000
							}
						}
					}
				}
				JOINT newVegas:LeftShoulder
				{
					OFFSET 15.263000 10.923401 -0.547700
					CHANNELS 3 Xrotation Yrotation Zrotation
					JOINT newVegas:LeftArm
					{
						OFFSET 25.438599 -2.830597 -13.032500
						CHANNELS 3 Xrotation Yrotation Zrotation
						JOINT newVegas:LeftForeArm
						{
							OFFSET 29.960503 0.000000 0.000000
							CHANNELS 3 Xrotation Yrotation Zrotation
							JOINT newVegas:LeftHand
							{
								OFFSET 27.849251 0.000000 0.000000
								CHANNELS 3 Xrotation Yrotation Zrotation
								JOINT newVegas:LeftHandThumb1
								{
									OFFSET 4.487587 -3.305161 6.305391
									CHANNELS 3 Xrotation Yrotation Zrotation
									JOINT newVegas:LeftHandThumb2
									{
										OFFSET 5.480453 -3.164139 3.164143
										CHANNELS 3 Xrotation Yrotation Zrotation
										JOINT newVegas:LeftHandThumb3
										{
											OFFSET 5.159721 -2.978973 2.978967
											CHANNELS 3 Xrotation Yrotation Zrotation
											End Site
											{
												OFFSET 2.494507 5.926697 1.738678
											}
										}
									}
								}
								JOINT newVegas:LeftHandIndex1
								{
									OFFSET 18.578728 -0.527832 5.208049
									CHANNELS 3 Xrotation Yrotation Zrotation
									JOINT newVegas:LeftHandIndex2
									{
										OFFSET 3.192009 0.000000 0.000000
										CHANNELS 3 Xrotation Yrotation Zrotation
										JOINT newVegas:LeftHandIndex3
										{
											OFFSET 3.835129 0.000000 0.000000
											CHANNELS 3 Xrotation Yrotation Zrotation
											End Site
											{
												OFFSET -0.034599 3.816971 0.371180
											}
										}
									}
								}
								JOINT newVegas:LeftHandMiddle1
								{
									OFFSET 18.476105 0.000000 0.000000
									CHANNELS 3 Xrotation Yrotation Zrotation
									JOINT newVegas:LeftHandMiddle2
									{
										OFFSET 3.324875 0.000000 0.000000
										CHANNELS 3 Xrotation Yrotation Zrotation
										JOINT newVegas:LeftHandMiddle3
										{
											OFFSET 4.596550 0.000000 0.000000
											CHANNELS 3 Xrotation Yrotation Zrotation
											End Site
											{
												OFFSET 0.057701 4.578827 0.399218
											}
										}
									}
								}
								JOINT newVegas:LeftHandRing1
								{
									OFFSET 17.732719 0.121887 -4.201567
									CHANNELS 3 Xrotation Yrotation Zrotation
									JOINT newVegas:LeftHandRing2
									{
										OFFSET 2.733170 0.000000 0.000000
										CHANNELS 3 Xrotation Yrotation Zrotation
										JOINT newVegas:LeftHandRing3
										{
											OFFSET 3.178268 0.000000 0.000000
											CHANNELS 3 Xrotation Yrotation Zrotation
											End Site
											{
												OFFSET 0.119102 3.170624 0.185394
											}
										}
									}
								}
								JOINT newVegas:LeftHandPinky1
								{
									OFFSET 15.989624 -0.606689 -7.535461
									CHANNELS 3 Xrotation Yrotation Zrotation
									JOINT newVegas:LeftHandPinky2
									{
										OFFSET 2.538986 0.000000 0.000000
										CHANNELS 3 Xrotation Yrotation Zrotation
										JOINT newVegas:LeftHandPinky3
										{
											OFFSET 2.593102 0.000000 0.000000
											CHANNELS 3 Xrotation Yrotation Zrotation
											End Site
											{
												OFFSET -0.150902 2.584198 0.152708
											}
										}
									}
								}
							}
							JOINT newVegas:Left_Sleeve
							{
								OFFSET 0.267448 -0.649796 0.577675
								CHANNELS 3 Xrotation Yrotation Zrotation
								End Site
								{
									OFFSET 0.000000 15.991241 0.000000
								}
							}
							JOINT newVegas:Left_CapeC
							{
								OFFSET 15.715958 -8.608795 -6.935905
								CHANNELS 3 Xrotation Yrotation Zrotation
								JOINT newVegas:Left_CapeC1
								{
									OFFSET 0.000000 -8.688499 0.000000
									CHANNELS 3 Xrotation Yrotation Zrotation
									End Site
									{
										OFFSET 0.000000 8.688499 0.000000
									}
								}
							}
						}
						JOINT newVegas:Left_CapeB
						{
							OFFSET 26.118385 -8.608795 -7.079235
							CHANNELS 3 Xrotation Yrotation Zrotation
							JOINT newVegas:Left_CapeB1
							{
								OFFSET 0.000000 -8.688499 0.000000
								CHANNELS 3 Xrotation Yrotation Zrotation
								End Site
								{
									OFFSET 0.000000 8.688499 0.000000
								}
							}
						}
						JOINT newVegas:Left_CapeA
						{
							OFFSET 5.115639 -8.608795 -10.395809
							CHANNELS 3 Xrotation Yrotation Zrotation
							JOINT newVegas:Left_CapeA1
							{
								OFFSET 0.000000 -8.688499 0.000000
								CHANNELS 3 Xrotation Yrotation Zrotation
								End Site
								{
									OFFSET 0.000000 8.688499 0.000000
								}
							}
						}
					}
				}
				JOINT newVegas:RightShoulder
				{
					OFFSET -15.263000 10.923401 -0.547700
					CHANNELS 3 Xrotation Yrotation Zrotation
					JOINT newVegas:RightArm
					{
						OFFSET -25.438599 -2.830597 -13.032500
						CHANNELS 3 Xrotation Yrotation Zrotation
						JOINT newVegas:RightForeArm
						{
							OFFSET -29.960503 0.000000 0.000000
							CHANNELS 3 Xrotation Yrotation Zrotation
							JOINT newVegas:RightHand
							{
								OFFSET -27.849251 0.000000 0.000000
								CHANNELS 3 Xrotation Yrotation Zrotation
								JOINT newVegas:RightHandThumb1
								{
									OFFSET -4.487587 -3.305161 6.305391
									CHANNELS 3 Xrotation Yrotation Zrotation
									JOINT newVegas:RightHandThumb2
									{
										OFFSET -5.480453 -3.164139 3.164143
										CHANNELS 3 Xrotation Yrotation Zrotation
										JOINT newVegas:RightHandThumb3
										{
											OFFSET -5.159721 -2.978973 2.978967
											CHANNELS 3 Xrotation Yrotation Zrotation
											End Site
											{
												OFFSET -2.494507 5.926697 1.738678
											}
										}
									}
								}
								JOINT newVegas:RightHandIndex1
								{
									OFFSET -18.578728 -0.527832 5.208049
									CHANNELS 3 Xrotation Yrotation Zrotation
									JOINT newVegas:RightHandIndex2
									{
										OFFSET -3.192009 0.000000 0.000000
										CHANNELS 3 Xrotation Yrotation Zrotation
										JOINT newVegas:RightHandIndex3
										{
											OFFSET -3.835129 0.000000 0.000000
											CHANNELS 3 Xrotation Yrotation Zrotation
											End Site
											{
												OFFSET 0.034599 3.816971 0.371180
											}
										}
									}
								}
								JOINT newVegas:RightHandMiddle1
								{
									OFFSET -18.476105 0.000000 0.000000
									CHANNELS 3 Xrotation Yrotation Zrotation
									JOINT newVegas:RightHandMiddle2
									{
										OFFSET -3.324875 0.000000 0.000000
										CHANNELS 3 Xrotation Yrotation Zrotation
										JOINT newVegas:RightHandMiddle3
										{
											OFFSET -4.596550 0.000000 0.000000
											CHANNELS 3 Xrotation Yrotation Zrotation
											End Site
											{
												OFFSET -0.057701 4.578827 0.399218
											}
										}
									}
								}
								JOINT newVegas:RightHandRing1
								{
									OFFSET -17.732719 0.121887 -4.201567
									CHANNELS 3 Xrotation Yrotation Zrotation
									JOINT newVegas:RightHandRing2
									{
										OFFSET -2.733170 0.000000 0.000000
										CHANNELS 3 Xrotation Yrotation Zrotation
										JOINT newVegas:RightHandRing3
										{
											OFFSET -3.178268 0.000000 0.000000
											CHANNELS 3 Xrotation Yrotation Zrotation
											End Site
											{
												OFFSET -0.119102 3.170624 0.185394
											}
										}
									}
								}
								JOINT newVegas:RightHandPinky1
								{
									OFFSET -15.989624 -0.606689 -7.535461
									CHANNELS 3 Xrotation Yrotation Zrotation
									JOINT newVegas:RightHandPinky2
									{
										OFFSET -2.538986 0.000000 0.000000
										CHANNELS 3 Xrotation Yrotation Zrotation
										JOINT newVegas:RightHandPinky3
										{
											OFFSET -2.593102 0.000000 0.000000
											CHANNELS 3 Xrotation Yrotation Zrotation
											End Site
											{
												OFFSET 0.150902 2.584198 0.152708
											}
										}
									}
								}
							}
							JOINT newVegas:Right_CapeC
							{
								OFFSET -15.715958 -8.608795 -6.935905
								CHANNELS 3 Xrotation Yrotation Zrotation
								JOINT newVegas:Right_CapeC1
								{
									OFFSET 0.000000 -8.688499 0.000000
									CHANNELS 3 Xrotation Yrotation Zrotation
									End Site
									{
										OFFSET 0.000000 8.688499 0.000000
									}
								}
							}
							JOINT newVegas:Right_Sleeve
							{
								OFFSET -0.267448 -0.649994 0.577675
								CHANNELS 3 Xrotation Yrotation Zrotation
								End Site
								{
									OFFSET 0.000000 15.991302 0.000000
								}
							}
						}
						JOINT newVegas:Right_CapeA
						{
							OFFSET -5.115540 -8.608795 -10.395824
							CHANNELS 3 Xrotation Yrotation Zrotation
							JOINT newVegas:Right_CapeA1
							{
								OFFSET 0.000000 -8.688499 0.000000
								CHANNELS 3 Xrotation Yrotation Zrotation
								End Site
								{
									OFFSET 0.000000 8.688499 0.000000
								}
							}
						}
						JOINT newVegas:Right_CapeB
						{
							OFFSET -26.118187 -8.608795 -7.079266
							CHANNELS 3 Xrotation Yrotation Zrotation
							JOINT newVegas:Right_CapeB1
							{
								OFFSET 0.000000 -8.688499 0.000000
								CHANNELS 3 Xrotation Yrotation Zrotation
								End Site
								{
									OFFSET 0.000000 8.688499 0.000000
								}
							}
						}
					}
				}
				JOINT newVegas:Left_Collar
				{
					OFFSET 18.625099 8.655502 8.828100
					CHANNELS 3 Xrotation Yrotation Zrotation
					JOINT newVegas:Left_Collar1
					{
						OFFSET 14.783401 10.540405 -1.259500
						CHANNELS 3 Xrotation Yrotation Zrotation
						End Site
						{
							OFFSET 0.000000 18.199875 0.000000
						}
					}
				}
				JOINT newVegas:Collar_Back
				{
					OFFSET 0.000000 15.630707 -20.132601
					CHANNELS 3 Xrotation Yrotation Zrotation
					End Site
					{
						OFFSET 0.000000 22.523010 0.000000
					}
				}
				JOINT newVegas:Left_Peck
				{
					OFFSET 17.239599 -5.132599 25.482599
					CHANNELS 3 Xrotation Yrotation Zrotation
					End Site
					{
						OFFSET 0.000000 22.523010 0.000000
					}
				}
				JOINT newVegas:Right_Peck
				{
					OFFSET -17.239599 -5.132202 25.482599
					CHANNELS 3 Xrotation Yrotation Zrotation
					End Site
					{
						OFFSET 0.000000 22.523010 0.000000
					}
				}
				JOINT newVegas:Right_Collar
				{
					OFFSET -18.625099 8.655792 8.828100
					CHANNELS 3 Xrotation Yrotation Zrotation
					JOINT newVegas:Right_Collar1
					{
						OFFSET -14.783401 10.539993 -1.259500
						CHANNELS 3 Xrotation Yrotation Zrotation
						End Site
						{
							OFFSET 0.000000 18.199631 0.000000
						}
					}
				}
			}
		}
		JOINT newVegas:Belly
		{
			OFFSET 0.000000 -6.540398 9.014299
			CHANNELS 3 Xrotation Yrotation Zrotation
			End Site
			{
				OFFSET 0.000000 11.566666 0.000000
			}
		}
	}
	JOINT newVegas:ElvisFacialAnim_Joint
	{
		OFFSET 1.000000 -95.330101 -8.825800
		CHANNELS 3 Xrotation Yrotation Zrotation
		End Site
		{
			OFFSET 0.000000 35.315800 0.000000
		}
	}
}
MOTION
Frames: 4
Frame Time: 0.016667
0.377324 69.413658 2.676197 16.557270 -8.661792 -4.340616 -0.000000 0.000001 -0.000000 -93.886851 0.013719 0.496175 50.500073 11.348895 -3.614748 17.681010 26.184910 16.726459 -0.000000 -0.000002 -0.000000 -0.000001 0.000000 0.000002 18.014294 -13.229461 5.831662 36.899472 -9.686203 8.173816 -26.334754 -12.117463 17.227260 -0.000004 -0.000000 0.000002 -0.000002 -0.000002 -0.000001 10.957534 14.179353 -9.149039 2.878199 4.087948 -0.126407 2.848458 4.312288 -0.311449 -0.301850 -0.900148 1.784619 -0.301841 -0.900151 1.784619 0.000001 0.000000 -0.000000 -0.301904 -0.900162 1.784624 -0.301673 -0.900131 1.784621 0.000002 0.000000 -0.000000 0.000001 0.000000 -0.000000 1.187666 -1.370113 -14.873642 -9.759259 30.208414 -41.048856 0.000005 -11.762807 -0.000004 17.749467 -17.726701 21.007625 -5.456654 -6.701464 3.223896 8.077431 27.563309 1.095398 -0.000000 -0.000003 0.000000 -1.812257 -6.056776 -12.583249 0.237188 1.651685 -16.342793 0.000000 -0.000003 0.000000 -1.249860 -0.637580 -18.645254 0.387935 2.098216 -20.947885 -0.000000 0.000001 0.000001 0.049642 3.688802 -26.109450 0.502173 2.375018 -23.874312 0.000001 -0.000001 0.000001 0.229228 4.355149 -33.121189 0.780416 2.923309 -29.888682 -0.000001 -0.000002 -0.000001 -0.000000 0.000002 0.000001 -0.000000 0.000002 0.000001 -0.000001 0.000002 0.000001 -0.000001 0.000001 -0.000003 -0.000001 -0.000000 -0.000003 -0.000001 0.000001 -0.000003 -0.000001 0.000002 -0.000002 2.870344 11.957084 -6.152307 -33.803648 70.877549 6.927801 0.000129 94.709589 -0.000107 17.111796 20.467026 -11.105448 -15.303027 26.927609 3.986229 9.854548 -45.625974 -5.441335 0.000001 -0.000005 0.000001 0.782859 -4.716619 13.868239 0.169904 -1.247741 15.507871 0.000001 -0.000004 -0.000001 1.576771 -6.016261 32.822276 0.816464 -2.636009 34.413621 -0.000000 0.000002 0.000003 2.347865 -6.542666 43.827408 1.218027 -3.142177 42.367858 0.000001 -0.000001 -0.000001 3.008740 -7.082376 54.088760 1.765791 -3.652454 51.591451 -0.000004 0.000003 0.000001 0.000001 -0.000001 -0.000000 0.000001 -0.000001 0.000000 0.000001 -0.000001 -0.000000 0.000000 -0.000001 -0.000001 0.000000 0.000000 -0.000001 0.000000 -0.000001 -0.000001 0.000000 -0.000000 -0.000001 0.000001 0.000000 -0.000001 0.000001 0.000000 -0.000001 0.000001 0.000000 -0.000001 0.000001 0.000000 -0.000001 0.000001 0.000000 -0.000001 0.000001 0.000000 -0.000001 0.000001 0.000000 -0.000001 -0.000001 -0.000000 -0.000000 -0.000000 0.000001 -0.000000 
-0.487482 69.567490 4.041525 18.131716 -8.219118 -4.362045 0.000001 0.000001 -0.000000 -95.815997 -0.153942 0.786581 53.145183 10.406819 -3.576978 16.032032 26.003859 15.675359 -0.000000 0.000000 0.000000 0.000002 0.000000 0.000002 9.864823 -13.220462 2.331604 45.265115 -8.880779 8.893542 -24.306442 -12.797321 18.189687 -0.000002 0.000003 0.000001 0.000000 0.000001 -0.000000 11.400936 13.526858 -9.288369 2.886044 3.978105 -0.232998 2.857335 4.195417 -0.413707 -0.335212 -0.891922 1.749059 -0.335250 -0.891922 1.749059 0.000001 -0.000001 0.000001 -0.335218 -0.891911 1.749058 -0.335213 -0.891922 1.749060 -0.000002 -0.000000 0.000000 0.000001 -0.000001 0.000001 1.200903 -1.794888 -15.693772 -10.576660 29.125132 -39.831652 0.000001 -14.202281 0.000013 18.131920 -16.995309 22.228634 -5.549653 -6.736311 3.295560 8.061869 27.560116 1.140127 -0.000003 -0.000003 -0.000005 -1.804110 -6.064280 -12.527723 0.233814 1.640169 -16.225632 0.000001 -0.000002 0.000002 -1.242803 -0.654487 -18.510835 0.385032 2.090610 -20.868231 0.000001 -0.000001 0.000000 0.044791 3.667146 -25.898576 0.498592 2.366933 -23.787821 -0.000000 -0.000002 -0.000000 0.274477 4.440112 -32.904925 0.769657 2.904533 -29.677052 -0.000002 0.000000 -0.000001 0.000002 -0.000001 -0.000003 0.000002 -0.000001 -0.000003 0.000001 -0.000001 -0.000002 0.000001 0.000001 0.000001 0.000001 0.000000 -0.000001 0.000001 0.000001 0.000001 -0.000000 -0.000000 0.000001 2.895095 12.404890 -5.753552 -30.219970 69.244267 3.681443 0.000154 96.122325 -0.000152 20.583427 21.050424 -13.126468 -15.466398 26.941195 3.833662 9.820590 -45.228669 -5.419520 0.000000 -0.000003 -0.000001 0.750049 -4.663060 13.088633 0.153304 -1.186298 14.726112 -0.000001 0.000000 0.000002 1.442559 -5.897362 30.789584 0.743597 -2.526481 32.796096 -0.000003 -0.000003 -0.000005 2.163469 -6.430846 41.453736 1.092400 -2.998872 40.023037 0.000005 0.000001 -0.000003 2.840318 -7.022736 51.977279 1.490538 -3.416653 47.129227 -0.000001 0.000002 -0.000002 0.000001 -0.000001 -0.000000 0.000001 -0.000001 0.000000 0.000001 -0.000001 -0.000000 0.000000 -0.000001 -0.000001 0.000000 0.000000 -0.000001 0.000000 -0.000001 -0.000001 0.000000 -0.000000 -0.000001 0.000004 0.000000 -0.000000 0.000004 0.000000 -0.000000 0.000004 0.000000 -0.000000 0.000004 0.000000 -0.000000 0.000004 0.000000 -0.000000 0.000004 0.000000 -0.000000 0.000004 0.000000 -0.000000 -0.000001 -0.000000 -0.000000 0.000001 0.000001 -0.000000 
-1.315985 69.703781 5.385466 19.745578 -7.795589 -4.397111 0.000001 0.000000 -0.000000 -97.670783 -0.346690 1.065019 55.559347 9.495780 -3.535544 14.446188 25.857372 14.691996 0.000000 -0.000000 -0.000000 0.000000 -0.000001 0.000001 2.245550 -12.820205 -1.127479 51.781693 -7.828369 9.302433 -20.553035 -13.197619 19.142338 0.000001 -0.000001 0.000003 0.000000 -0.000002 0.000001 11.853549 12.852315 -9.460893 2.894004 3.864281 -0.347307 2.866447 4.074823 -0.524105 -0.371652 -0.883188 1.711227 -0.371636 -0.883189 1.711227 0.000003 0.000000 -0.000001 -0.371528 -0.883185 1.711225 -0.371753 -0.883186 1.711221 -0.000000 0.000001 -0.000001 0.000003 0.000000 -0.000001 1.202246 -2.183952 -16.571267 -11.438023 28.007285 -38.630864 -0.000011 -16.749039 0.000001 18.480077 -16.138074 23.428259 -5.643227 -6.771491 3.367522 8.046146 27.556905 1.185255 0.000003 -0.000002 -0.000005 -1.795908 -6.071799 -12.471868 0.230457 1.628580 -16.107796 0.000001 -0.000001 -0.000002 -1.235638 -0.671460 -18.375639 0.382569 2.084151 -20.800750 0.000001 0.000002 0.000001 0.039991 3.645358 -25.686426 0.495636 2.360203 -23.716024 -0.000000 0.000001 0.000000 0.319283 4.525962 -32.687329 0.758931 2.885654 -29.464722 0.000001 0.000002 -0.000001 0.000001 0.000004 0.000002 0.000001 0.000004 0.000002 -0.000000 0.000004 0.000002 -0.000001 -0.000003 -0.000000 -0.000001 -0.000004 -0.000002 -0.000001 -0.000003 -0.000000 -0.000001 -0.000003 0.000001 2.921957 12.894766 -5.335065 -27.021016 67.470241 0.787261 -0.000087 97.583623 0.000072 24.180845 21.456139 -15.177649 -15.633622 26.955500 3.677438 9.785825 -44.821791 -5.396991 0.000001 -0.000004 -0.000001 0.717149 -4.607645 12.288695 0.137019 -1.122560 13.918175 -0.000001 0.000002 0.000000 1.306886 -5.767754 28.660252 0.670834 -2.409917 31.106625 -0.000000 -0.000002 0.000003 1.971117 -6.299197 38.969381 0.968397 -2.844892 37.590745 0.000003 0.000001 0.000001 2.670718 -6.955896 49.823713 1.221427 -3.145916 42.430122 -0.000004 0.000003 0.000001 0.000000 -0.000000 -0.000000 0.000000 -0.000000 0.000000 0.000000 -0.000000 -0.000000 0.000000 0.000000 0.000000 0.000000 0.000001 0.000000 0.000000 0.000000 0.000000 0.000000 0.000002 0.000000 0.000000 -0.000000 0.000001 0.000000 -0.000000 0.000001 0.000000 -0.000000 0.000001 0.000000 -0.000000 0.000001 0.000000 -0.000000 0.000001 0.000000 -0.000000 0.000001 0.000000 -0.000000 0.000001 -0.000004 0.000000 -0.000000 0.000001 0.000000 -0.000000 
-2.124940 69.796768 6.721172 21.392800 -7.405556 -4.447994 0.000003 0.000000 -0.000000 -99.527372 -0.577043 1.354978 57.887520 8.607481 -3.496618 12.876676 25.737678 13.751934 -0.000000 -0.000002 0.000000 -0.000001 -0.000001 0.000002 -4.853518 -12.112419 -4.484086 56.648021 -6.504387 9.519141 -15.546416 -13.327560 19.901267 0.000001 0.000001 -0.000001 0.000002 -0.000001 0.000000 12.312211 12.177441 -9.659897 2.901932 3.747261 -0.467804 2.875562 3.951232 -0.641013 -0.410635 -0.873990 1.671354 -0.410599 -0.873989 1.671352 -0.000000 0.000000 -0.000000 -0.410623 -0.874001 1.671358 -0.410622 -0.873991 1.671359 -0.000004 -0.000000 -0.000001 -0.000000 0.000000 -0.000000 1.192190 -2.545275 -17.494054 -12.336930 26.855237 -37.455128 0.000004 -19.379950 -0.000005 18.788822 -15.181784 24.605560 -5.737355 -6.806998 3.439796 8.030425 27.553641 1.230493 0.000001 0.000003 -0.000006 -1.787651 -6.079360 -12.415701 0.227106 1.616922 -15.989343 -0.000000 -0.000001 -0.000001 -1.228404 -0.688527 -18.239648 0.380522 2.078748 -20.744273 0.000000 0.000001 0.000000 0.035234 3.623429 -25.473064 0.493240 2.354715 -23.657474 -0.000001 -0.000002 -0.000000 0.363624 4.612644 -32.468500 0.748244 2.866688 -29.251726 -0.000001 -0.000002 -0.000000 0.000000 0.000000 -0.000000 0.000000 0.000000 -0.000000 -0.000001 0.000000 0.000001 0.000001 0.000003 -0.000000 0.000001 0.000003 -0.000003 0.000001 0.000003 -0.000000 -0.000001 0.000003 -0.000000 2.947549 13.415557 -4.901033 -24.203554 65.584036 -1.746855 0.000458 99.080643 -0.000435 27.863635 21.684515 -17.233059 -15.804310 26.970511 3.518013 9.750370 -44.406495 -5.373808 0.000001 -0.000006 0.000000 0.684506 -4.550891 11.475702 0.121334 -1.057232 13.093348 0.000000 0.000004 0.000001 1.172684 -5.629143 26.469215 0.599696 -2.287994 29.371080 -0.000001 0.000002 0.000003 1.777386 -6.150710 36.414563 0.848408 -2.682001 35.102357 -0.000000 0.000001 -0.000001 2.501532 -6.882169 47.643373 0.967618 -2.843851 37.575101 0.000005 0.000002 -0.000001 0.000002 0.000001 0.000001 0.000003 0.000000 0.000000 0.000002 0.000001 0.000001 -0.000000 -0.000001 0.000001 0.000000 0.000000 0.000001 -0.000000 -0.000001 0.000001 0.000000 -0.000000 0.000001 -0.000001 0.000001 -0.000001 -0.000001 0.000001 -0.000001 -0.000001 0.000001 -0.000001 -0.000001 0.000001 -0.000001 -0.000001 0.000001 -0.000001 -0.000001 0.000001 -0.000001 -0.000001 0.000001 -0.000001 0.000002 0.000001 -0.000000 0.000003 0.000000 -0.000000 
